<svg xmlns="http://www.w3.org/2000/svg" id="logo.svg" width="862.84" height="136.22" viewBox="0 0 862.84 136.22">
  <defs>
    <style>
      .cls-1 { fill: #5ec356; } .cls-1, .cls-2 { fill-rule: evenodd; } .cls-2 { fill: #3e3e3e; }
    </style>
  </defs>
  <path id="KiwiQuest" d="M0 127.14h24.54v-36.7L43.6 68.3l33.52 58.84h29.34l-44.7-80.28 35.98-42.5H67.58L24.54 57.4l-.18-53.04H0v122.78zm128.43 0h23.97V34.87h-23.97v92.27zm2-122.78a14.3 14.3 0 0 0-3.82 9.62 14.3 14.3 0 0 0 3.9 9.63 13.05 13.05 0 0 0 10.3 4.4q6.6 0 10-4.1a14.68 14.68 0 0 0 3.5-9.6 14.93 14.93 0 0 0-3.6-9.8 12.1 12.1 0 0 0-9.9-4.5 13.05 13.05 0 0 0-10.3 4.4zm69.74 122.78h20.34l13.9-54.12 14.2 54.12h20l26.9-92.27h-25.1L259 85l-13.8-50.13h-21.44L211.08 85l-12-50.13h-25.8zm116.8 0h23.96V34.87h-23.97v92.27zm2-122.78a14.3 14.3 0 0 0-3.83 9.62 14.3 14.3 0 0 0 3.82 9.63A13.05 13.05 0 0 0 329.3 28q6.56 0 10-4.18a14.68 14.68 0 0 0 3.46-9.64 14.93 14.93 0 0 0-3.63-9.8 12.1 12.1 0 0 0-9.8-4.37 13.05 13.05 0 0 0-10.36 4.4z" class="cls-1"/>
  <path id="KiwiQuest-2" d="M396.87 38.32q7.45-11.08 21.07-11.08a24.83 24.83 0 0 1 21.43 11.08q7.8 11.08 7.8 27.97T441 93.7l-8.7-12.34L417.03 93l9.45 12.7a33.88 33.88 0 0 1-13.63.2q-7.8-1.28-15.62-12.54t-7.8-27.6q0-16.35 7.44-27.44zm-15.8-19.98q-16.35 16.17-16.9 45.4t12.9 46.88q13.45 17.62 32.7 18.7t29.06-3.63l6.54 10.5 16.7-12-6.53-9.8q17.07-17.1 16.72-49.1t-16-47.4Q440.66 2.5 419.2 2.1q-21.76 0-38.1 16.2zm114.24 69.2q0 24.7 10.4 33.07t21.8 8.2q11.5-.2 22.7-8.1v6.6h24V34.9h-24v49.4q0 10.54-4 15.8t-12.2 5.47q-8.1.18-11.4-5.1t-3.3-14.37V34.86h-24v52.68zM658.6 98.1a19.3 19.3 0 0 1-16.9 6.9q-10.35-.72-14.16-6.54t-4.18-10.53h55.58q1.82-28.7-10.35-42.13t-28.9-13.44q-16.7 0-28.5 12.7t-12 34.9Q599 102.1 610.1 115t30.5 13.45q19.44.54 35.43-14.72zm-29.97-39.6q3.45-4.72 11.08-4.54t11.1 4.72a24.7 24.7 0 0 1 4.6 11.08h-31.3a26 26 0 0 1 4.6-11.26zm111.34-26q-16.9.2-26.34 7.45t-8.9 21.62q.55 14.35 11.08 20.34a97.56 97.56 0 0 0 23.8 9.5q13.3 3.5 14.4 7.8t-3.2 6.9q-4.3 2.6-15.4 1.3t-24.5-8.5l-9.1 19.7q20.7 10.2 38 10.4t28-6.52q10.7-6.72 10.9-22.52T765.4 77.8a207.6 207.6 0 0 0-24.7-10q-11.26-3.66-11.62-7.3a5.2 5.2 0 0 1 2.9-5.44q3.27-1.8 12.9-1.27t23.8 7.45l7.63-20q-19.3-8.8-36.2-8.64zm76.92-21.33v24.16h-15.8V58.3h15.7v43.78a32.4 32.4 0 0 0 5 17.26q4.9 7.8 15.4 8.9t21.9-4.73l3.5-25.4q-9.5 8.4-15.7 7.3t-6.1-9.4l.1-37.6h21.8l-.1-23h-21.8V0z" data-name="KiwiQuest" class="cls-2"/>
</svg>
